<svg width="58" height="58" viewBox="0 0 58 58" fill="none" xmlns="http://www.w3.org/2000/svg">
<g clip-path="url(#clip0_70_159)">
<path d="M40.0511 55.0873H17.9489C17.9489 55.0873 21.7177 52.1995 21.7177 46.5585H36.2823C36.2823 52.1995 40.0511 55.0873 40.0511 55.0873Z" fill="#ADE7FF"/>
<path d="M36.2823 46.5585H32.9759C32.9759 52.1995 36.7447 55.0873 36.7447 55.0873H40.0511C40.0511 55.0873 36.2823 52.1995 36.2823 46.5585Z" fill="#82D2F5"/>
<path d="M56.1803 47.1467H1.8196C0.814673 47.1467 2.28882e-05 46.3325 2.28882e-05 45.3275V11.6224C2.28882e-05 10.6175 0.814673 9.80286 1.8196 9.80286H56.1803C57.1853 9.80286 57.9999 10.6175 57.9999 11.6224V45.3275C57.9999 46.3325 57.1853 47.1467 56.1803 47.1467Z" fill="#685C79"/>
<path d="M56.1804 9.80286H52.6797C53.6846 9.80286 54.4988 10.6175 54.4988 11.6224V45.3276C54.4988 46.3325 53.6846 47.1467 52.6797 47.1467H56.1804C57.1853 47.1467 57.9999 46.3325 57.9999 45.3276V11.6224C57.9999 10.6175 57.1853 9.80286 56.1804 9.80286Z" fill="#594F69"/>
<path d="M3.50116 43.1929V13.7571C3.50116 13.5066 3.70383 13.304 3.95428 13.304H54.0458C54.2963 13.304 54.499 13.5066 54.499 13.7571V43.1929C54.499 43.443 54.2963 43.6461 54.0458 43.6461H3.95428C3.70383 43.6461 3.50116 43.443 3.50116 43.1929Z" fill="#85BB72"/>
<path d="M44.0545 57.9999H13.946C12.9791 57.9999 12.1955 57.2162 12.1955 56.2493C12.1955 55.2825 12.9791 54.4988 13.946 54.4988H44.0545C45.0214 54.4988 45.805 55.2825 45.805 56.2493C45.805 57.2162 45.0214 57.9999 44.0545 57.9999Z" fill="#685C79"/>
<path d="M44.0544 54.4988H40.5387C41.5052 54.4988 42.2888 55.2829 42.2888 56.2493C42.2888 57.2162 41.5052 57.9999 40.5387 57.9999H44.0544C45.0209 57.9999 45.805 57.2162 45.805 56.2493C45.805 55.2825 45.0213 54.4988 44.0544 54.4988Z" fill="#594F69"/>
<path d="M46.5488 2.60016C46.5488 3.56703 45.7652 4.35071 44.7983 4.35071C43.8314 4.35071 43.0477 3.56703 43.0477 2.60016C43.0477 1.63329 43.8314 0.849609 44.7983 0.849609C45.7652 0.849609 46.5488 1.63329 46.5488 2.60016Z" fill="#FFEB17"/>
<path d="M30.7505 2.60016C30.7505 3.56703 29.9669 4.35071 29 4.35071C28.0331 4.35071 27.2494 3.56703 27.2494 2.60016C27.2494 1.63329 28.0331 0.849609 29 0.849609C29.9669 0.849609 30.7505 1.63329 30.7505 2.60016Z" fill="#FF2C5C"/>
<path d="M14.9523 2.60016C14.9523 3.56703 14.1686 4.35071 13.2017 4.35071C12.2349 4.35071 11.4512 3.56703 11.4512 2.60016C11.4512 1.63329 12.2349 0.849609 13.2017 0.849609C14.1686 0.849609 14.9523 1.63329 14.9523 2.60016Z" fill="#FFEB17"/>
<path d="M47.3984 2.60016C47.3984 1.16644 46.232 0 44.7983 0C43.3646 0 42.1981 1.16644 42.1981 2.60016C42.1981 3.73651 42.9309 4.70383 43.9487 5.05695V6.30171H36.0752C35.6057 6.30171 35.2256 6.68227 35.2256 7.15132V20.2234C35.2256 20.6924 35.6057 21.073 36.0752 21.073C36.5442 21.073 36.9248 20.6924 36.9248 20.2234V8.00093H44.7983C45.2678 8.00093 45.6479 7.62082 45.6479 7.15132V5.05695C46.6657 4.70383 47.3984 3.73651 47.3984 2.60016ZM44.7983 3.5011C44.3014 3.5011 43.8973 3.09709 43.8973 2.60016C43.8973 2.10323 44.3014 1.69922 44.7983 1.69922C45.2952 1.69922 45.6992 2.10323 45.6992 2.60016C45.6992 3.09709 45.2952 3.5011 44.7983 3.5011Z" fill="#594F69"/>
<path d="M29 0C27.5663 0 26.3998 1.16644 26.3998 2.60016C26.3998 3.73651 27.1326 4.70383 28.1504 5.05695V16.8957C28.1504 17.3652 28.5309 17.7453 29 17.7453C29.4695 17.7453 29.8496 17.3652 29.8496 16.8957V5.05695C30.8674 4.70383 31.6001 3.73651 31.6001 2.60016C31.6001 1.16644 30.4337 0 29 0ZM29 3.5011C28.5031 3.5011 28.099 3.09709 28.099 2.60016C28.099 2.10323 28.5031 1.69922 29 1.69922C29.4969 1.69922 29.9009 2.10323 29.9009 2.60016C29.9009 3.09709 29.4969 3.5011 29 3.5011Z" fill="#594F69"/>
<path d="M21.9253 6.30171H14.0513V5.05695C15.0691 4.70383 15.8019 3.73651 15.8019 2.60016C15.8019 1.16644 14.6355 0 13.2017 0C11.768 0 10.6016 1.16644 10.6016 2.60016C10.6016 3.73651 11.3344 4.70383 12.3521 5.05695V7.15132C12.3521 7.62082 12.7327 8.00093 13.2017 8.00093H21.0757V20.2234C21.0757 20.6924 21.4558 21.073 21.9253 21.073C22.3943 21.073 22.7749 20.6924 22.7749 20.2234V7.15132C22.7749 6.68227 22.3943 6.30171 21.9253 6.30171ZM13.2017 1.69922C13.6987 1.69922 14.1027 2.10323 14.1027 2.60016C14.1027 3.09709 13.6987 3.5011 13.2017 3.5011C12.7052 3.5011 12.3008 3.09709 12.3008 2.60016C12.3008 2.10323 12.7052 1.69922 13.2017 1.69922Z" fill="#594F69"/>
<path d="M40.3202 21.8827V35.2995C40.3202 35.5623 40.1697 35.8004 39.933 35.9137L36.8722 37.3761L29.2934 40.9963C29.2005 41.0405 29.0996 41.0622 29 41.0622C28.9004 41.0622 28.7996 41.0405 28.7066 40.9963L18.0675 35.9137C17.8307 35.8004 17.6798 35.5623 17.6798 35.2995V21.8827C17.6798 21.7464 17.7206 21.6172 17.7931 21.5088C17.8591 21.4079 17.9529 21.3238 18.0675 21.2698L25.7525 17.5984L28.7066 16.1868C28.8925 16.0974 29.1075 16.0974 29.2934 16.1868L39.933 21.2698C40.0471 21.3238 40.1414 21.4079 40.2069 21.5088C40.2795 21.6172 40.3202 21.7464 40.3202 21.8827Z" fill="#FF2C5C"/>
<path d="M29 26.8622V41.0622C28.9004 41.0622 28.7996 41.0405 28.7066 40.9963L18.0675 35.9137C17.8307 35.8004 17.6798 35.5623 17.6798 35.2995V21.8827C17.6798 21.7464 17.7206 21.6172 17.7931 21.5088L29 26.8622Z" fill="#4FB1F5"/>
<path d="M40.3201 21.8827V35.2995C40.3201 35.5623 40.1697 35.8004 39.933 35.9137L36.8721 37.3761L29.2934 40.9963C29.2004 41.0405 29.0995 41.0622 29 41.0622V26.8622L36.8186 23.1275L40.2069 21.5088C40.2794 21.6172 40.3201 21.7464 40.3201 21.8827Z" fill="#FFD659"/>
<path d="M40.2069 21.5088L36.8186 23.1275L25.7525 17.5984L28.7066 16.1868C28.8925 16.0974 29.1075 16.0974 29.2934 16.1868L39.933 21.2698C40.0471 21.3238 40.1414 21.4079 40.2069 21.5088Z" fill="#E62753"/>
<path d="M40.3201 21.8827V35.2995C40.3201 35.5623 40.1697 35.8004 39.9329 35.9137L36.8721 37.3761L36.8186 23.1275L40.2069 21.5088C40.2794 21.6172 40.3201 21.7464 40.3201 21.8827Z" fill="#FFB8F5"/>
</g>
<defs>
<clipPath id="clip0_70_159">
<rect width="58" height="58" fill="white"/>
</clipPath>
</defs>
</svg>
