<svg width="58" height="58" viewBox="0 0 58 58" fill="none" xmlns="http://www.w3.org/2000/svg">
<g clip-path="url(#clip0_70_102)">
<path d="M24.5989 0.959473H28.1647V4.52387H24.5989V0.959473Z" fill="#60F7A6"/>
<path d="M8.28562 4.63378C9.33093 4.63378 10.1783 3.78669 10.1783 2.74176C10.1783 1.69682 9.33093 0.849731 8.28562 0.849731C7.24031 0.849731 6.39291 1.69682 6.39291 2.74176C6.39291 3.78669 7.24031 4.63378 8.28562 4.63378Z" fill="#FFEB17"/>
<path d="M44.4778 4.63378C45.5232 4.63378 46.3706 3.78669 46.3706 2.74176C46.3706 1.69682 45.5232 0.849731 44.4778 0.849731C43.4325 0.849731 42.5851 1.69682 42.5851 2.74176C42.5851 3.78669 43.4325 4.63378 44.4778 4.63378Z" fill="#FFEB17"/>
<path d="M3.52606 38.6032C2.04797 38.6032 0.849792 37.4075 0.849792 35.9325V10.5976C0.849792 9.12256 2.04797 7.92688 3.52606 7.92688H49.2376C50.7157 7.92688 51.9139 9.12256 51.9139 10.5976V38.6033H3.52606V38.6032Z" fill="#85BB72"/>
<path d="M51.9139 10.5976C51.9139 9.12256 50.7156 7.92688 49.2376 7.92688H3.52599C2.0479 7.92688 0.849609 9.12256 0.849609 10.5976V31.5896H51.9139V10.5976Z" fill="#85BB72"/>
<path d="M49.2376 7.92688H44.7063C46.1844 7.92688 47.3826 9.12256 47.3826 10.5976V31.5896H51.9138V10.5976C51.9138 9.12256 50.7157 7.92688 49.2376 7.92688V7.92688Z" fill="#85BB72"/>
<path d="M21.3663 45.6412L22.0996 38.6033H29.4572V47.203L21.3663 45.6412Z" fill="#85BB72"/>
<path d="M29.0147 48.7648H16.3884C16.3884 47.0397 17.787 45.6411 19.5121 45.6411H29.0147V48.7648Z" fill="#85BB72"/>
<path d="M30.6542 24.8284L35.031 19.7003L26.3817 4.48108L17.7325 19.7003L22.1092 24.8284L26.3817 29.3759L30.6542 24.8284Z" fill="#FFB8F5"/>
<path d="M20.7752 30.4779V25.9868C20.7752 25.347 21.2938 24.8284 21.9336 24.8284H30.8299C31.4697 24.8284 31.9884 25.347 31.9884 25.9868V30.4779C31.9884 31.0989 31.4849 31.6024 30.8639 31.6024H21.8996C21.2786 31.6024 20.7752 31.0989 20.7752 30.4779V30.4779Z" fill="#6B78E3"/>
<path d="M26.3817 20.1756C27.4378 20.1756 28.2938 19.319 28.2938 18.2623C28.2938 17.2056 27.4378 16.349 26.3817 16.349C25.3257 16.349 24.4697 17.2056 24.4697 18.2623C24.4697 19.319 25.3257 20.1756 26.3817 20.1756Z" fill="#F7D600"/>
<path d="M28.5044 35.1296C27.8411 35.1296 27.3035 35.6673 27.3035 36.3305V55.9495C27.3035 56.6128 27.8411 57.1504 28.5044 57.1504H35.5368V35.1296H28.5044Z" fill="#60F7A6"/>
<path d="M55.9495 35.1296H53.452H49.2745H33.5733V57.1504H55.9496C56.6128 57.1504 57.1505 56.6127 57.1505 55.9495V36.3305C57.1504 35.6674 56.6128 35.1296 55.9495 35.1296Z" fill="#6B78E3"/>
<path d="M55.9495 35.1296H53.452H51.4182C52.0814 35.1296 52.6191 35.6673 52.6191 36.3305V55.9495C52.6191 56.6127 52.0815 57.1504 51.4182 57.1504H55.9495C56.6126 57.1504 57.1504 56.6127 57.1504 55.9495V36.3305C57.1504 35.6674 56.6128 35.1296 55.9495 35.1296Z" fill="#616CCF"/>
<path d="M57.7213 28.7754C57.3895 28.4433 56.8515 28.4432 56.5199 28.775L55.2872 30.0071C54.9553 30.3389 54.9552 30.8767 55.2869 31.2085C55.4529 31.3746 55.6704 31.4575 55.8879 31.4575C56.1053 31.4575 56.3226 31.3747 56.4885 31.2089L57.7211 29.9768C58.0528 29.6451 58.0529 29.1073 57.7213 28.7754Z" fill="#60F7A6"/>
<path d="M56.5322 32.0482L53.452 35.1297L45.2292 43.3559L43.1435 41.2633L49.2745 35.1298L54.4465 29.9558C54.6651 29.7381 55.0189 29.7388 55.2366 29.9573L56.5336 31.2586C56.7514 31.4769 56.7507 31.8305 56.5322 32.0482V32.0482Z" fill="#4F5AC2"/>
<path d="M44.1864 42.3094L45.2292 43.3557C45.2292 43.3557 43.6954 44.7256 42.0171 44.743L41.7451 44.4701C41.7686 42.7925 43.1435 41.2631 43.1435 41.2631L44.1864 42.3094Z" fill="#60F7A6"/>
<path d="M55.9495 34.2802H55.5025L57.1319 32.65C57.7156 32.0687 57.6185 31.174 57.0873 30.6103L57.721 29.9769C58.4979 29.2004 57.2966 27.9983 56.5198 28.7751L55.8876 29.4069C55.3312 28.8389 54.427 28.776 53.8454 29.3551L52.7633 30.4377V10.5976C52.7633 8.65639 51.1816 7.07725 49.2375 7.07725H28.8344L27.8662 5.3735C28.937 5.45019 29.1392 4.44799 29.0142 3.59136H41.871C42.2297 4.68837 43.2623 5.48338 44.4778 5.48338C45.99 5.48338 47.2202 4.25348 47.2202 2.74175C47.2202 1.23001 45.99 0 44.4778 0C43.2623 0 42.2296 0.795008 41.871 1.89202H29.0142C29.1058 1.26898 29.0474 0.109883 28.1646 0.109883H24.5988C23.7278 0.109883 23.6613 1.25436 23.7492 1.89202H10.8924C10.5339 0.795121 9.50112 0 8.28562 0C6.77343 0 5.5433 1.23001 5.5433 2.74163C5.5433 4.25326 6.77354 5.48327 8.28562 5.48327C9.50112 5.48327 10.5338 4.68826 10.8924 3.59124H23.7493C23.6242 4.44787 23.8266 5.45007 24.8974 5.37338L23.9292 7.07713H3.52588C1.58175 7.07725 0 8.65639 0 10.5976V35.9325C0 37.8737 1.58175 39.4528 3.52588 39.4528H21.1569L20.6005 44.7914H19.512C17.321 44.7914 15.5386 46.5738 15.5386 48.7647C15.5386 49.2341 15.919 49.6144 16.3882 49.6144H26.4537V55.9496C26.4537 57.0802 27.3735 58.0001 28.5042 58.0001H55.9493C57.0802 58 58 57.0802 58 55.9496V36.3305C58 35.2 57.0802 34.2802 55.9495 34.2802V34.2802ZM54.8405 30.7632L55.7267 31.6524L45.2301 42.1532C44.9347 41.8569 44.6394 41.5605 44.3439 41.2642L54.8405 30.7632ZM43.2448 42.5684L43.9236 43.2493C43.5838 43.4558 43.1547 43.6721 42.6959 43.7942C42.8195 43.3349 43.037 42.9069 43.2448 42.5684V42.5684ZM49.2376 8.77646C50.2449 8.77646 51.0642 9.59345 51.0642 10.5976V30.74H32.8185C32.8185 28.547 32.838 27.538 32.838 25.9869C32.838 25.3636 32.5525 24.8058 32.1054 24.4371L35.6774 20.252C35.9096 19.98 35.9465 19.5915 35.7697 19.2806L29.8001 8.77646H49.2376ZM21.821 30.74C21.708 30.7059 21.6248 30.6021 21.6248 30.478V25.9868C21.6248 25.7335 21.9094 25.6497 22.1093 25.6779H30.6544C30.8542 25.6497 31.1388 25.7334 31.1388 25.9868V30.478C31.1388 30.602 31.0556 30.7059 30.9425 30.74H21.821ZM25.5321 7.69565V15.6338C24.4239 15.9933 23.6202 17.0355 23.6202 18.2624C23.6202 19.7858 24.859 21.0253 26.3817 21.0253C27.9045 21.0253 29.1433 19.7859 29.1433 18.2624C29.1433 17.0355 28.3396 15.9933 27.2313 15.6338V7.69565L33.9979 19.6021L30.2623 23.9789H22.5011L18.7655 19.6021L25.5321 7.69565ZM26.3817 17.1987C26.9675 17.1987 27.4441 17.6758 27.4441 18.2624C27.4441 18.849 26.9675 19.3261 26.3817 19.3261C25.796 19.3261 25.3194 18.849 25.3194 18.2624C25.3194 17.6758 25.796 17.1987 26.3817 17.1987ZM44.4778 1.69922C45.053 1.69922 45.5209 2.16684 45.5209 2.74163C45.5209 3.31642 45.053 3.78405 44.4778 3.78405C43.9027 3.78405 43.4348 3.31642 43.4348 2.74163C43.4348 2.16684 43.9027 1.69922 44.4778 1.69922V1.69922ZM25.4485 1.8091H27.3151V3.67428H25.4485V1.8091ZM8.28562 3.78416C7.71037 3.78416 7.24252 3.31654 7.24252 2.74175C7.24252 2.16696 7.71037 1.69922 8.28562 1.69922C8.86075 1.69922 9.32871 2.16684 9.32871 2.74163C9.32871 3.31642 8.86075 3.78416 8.28562 3.78416ZM3.52588 8.77646H22.9634L16.9939 19.2805C16.8172 19.5914 16.8541 19.9799 17.0863 20.2519L20.6583 24.4369C20.2112 24.8055 19.9256 25.3634 19.9256 25.9868C19.9256 27.5389 19.9451 28.9805 19.9451 30.7399H1.69922V10.5976C1.69922 9.59345 2.5187 8.77646 3.52588 8.77646V8.77646ZM1.69922 35.9326V32.4392H21.681C21.7529 32.4471 21.8257 32.452 21.8996 32.452H30.8639C30.9379 32.452 31.0107 32.4471 31.0826 32.4392H50.7627L48.9225 34.2802H28.5044C27.3738 34.2802 26.4539 35.2 26.4539 36.3307V37.7538H22.0996H3.52588C2.5187 37.7537 1.69922 36.9367 1.69922 35.9326V35.9326ZM22.8654 39.4529H26.4539V44.7915H22.309L22.8654 39.4529ZM17.4026 47.9153C17.7398 47.0809 18.5584 46.4907 19.5122 46.4907H21.3653C21.366 46.4907 21.3668 46.4909 21.3674 46.4909C21.3682 46.4909 21.369 46.4907 21.3698 46.4907H26.454V47.9153H17.4026ZM28.1531 55.9496V36.3305C28.1531 36.1368 28.3107 35.9793 28.5044 35.9793H32.7237V56.3008H28.5044C28.3107 56.3008 28.1531 56.1433 28.1531 55.9496V55.9496ZM56.3008 55.9496C56.3008 56.1433 56.1431 56.3009 55.9494 56.3009H34.4229V35.9794H47.224L42.5427 40.6628C41.6106 41.5948 40.9141 43.151 40.8958 44.4584C40.8889 44.9509 41.5316 45.5929 42.0262 45.5929C43.3518 45.5791 44.8909 44.896 45.8303 43.9565L53.8041 35.9795H55.9496C56.1433 35.9795 56.301 36.1371 56.301 36.3308V55.9496H56.3008Z" fill="#060606"/>
<path d="M30.3688 50.3684C29.8995 50.3684 29.5192 50.7487 29.5192 51.218V53.4294C29.5192 54.5279 31.2184 54.5279 31.2184 53.4294V51.218C31.2184 50.7488 30.8381 50.3684 30.3688 50.3684Z" fill="#060606"/>
<path d="M30.3689 48.7097C31.4623 48.7097 31.4641 47.0105 30.3689 47.0105C29.2755 47.0105 29.2737 48.7097 30.3689 48.7097Z" fill="#060606"/>
<path d="M30.3689 43.5704C29.2755 43.5704 29.2737 45.2697 30.3689 45.2697C31.4622 45.2697 31.464 43.5704 30.3689 43.5704Z" fill="#060606"/>
<path d="M30.3688 38.0016C29.8995 38.0016 29.5192 38.3819 29.5192 38.8512V41.0626C29.5192 42.161 31.2184 42.161 31.2184 41.0626V38.8512C31.2184 38.3819 30.8381 38.0016 30.3688 38.0016Z" fill="#060606"/>
</g>
<defs>
<clipPath id="clip0_70_102">
<rect width="58" height="58" fill="white"/>
</clipPath>
</defs>
</svg>
