<svg width="47" height="72" viewBox="0 0 47 72" fill="none" xmlns="http://www.w3.org/2000/svg">
<path d="M1.28583 71.3573H45.0001C45.0001 60.4287 41.7858 51.4287 37.9287 47.5715C36.1868 45.8545 34.1692 44.442 31.9598 43.393C33.3554 42.6463 34.5119 41.5207 35.2961 40.1457C36.0802 38.7707 36.4602 37.2022 36.3923 35.6208H36.5369C36.9423 35.667 37.3528 35.6298 37.7433 35.5115C38.1338 35.3932 38.4959 35.1963 38.8075 34.9329C39.1191 34.6696 39.3735 34.3452 39.5552 33.9799C39.7368 33.6146 39.8419 33.216 39.8638 32.8086C39.8858 32.4011 39.8242 31.9936 39.6828 31.6108C39.5415 31.2281 39.3234 30.8783 39.0419 30.583C38.7604 30.2876 38.4215 30.053 38.046 29.8934C37.6705 29.7338 37.2663 29.6527 36.8583 29.6551C36.642 29.6571 36.4266 29.6819 36.2155 29.729L35.3573 29.9187V18.0001C35.3573 15.1017 34.2059 12.3219 32.1563 10.2724C30.1068 8.22293 27.3271 7.07153 24.4287 7.07153H21.8573C18.9588 7.07153 16.1791 8.22293 14.1296 10.2724C12.0801 12.3219 10.9287 15.1017 10.9287 18.0001V29.9283L10.0705 29.7387C9.85937 29.6915 9.6439 29.6668 9.42761 29.6647C9.01962 29.6624 8.61546 29.7435 8.23995 29.903C7.86445 30.0626 7.52555 30.2973 7.24406 30.5926C6.96258 30.888 6.74446 31.2377 6.60311 31.6205C6.46176 32.0032 6.40017 32.4108 6.42212 32.8182C6.44407 33.2256 6.5491 33.6242 6.73075 33.9895C6.9124 34.3549 7.16685 34.6792 7.47844 34.9426C7.79003 35.206 8.15218 35.4029 8.54265 35.5212C8.93313 35.6395 9.34367 35.6766 9.74904 35.6305H9.89368C9.82758 37.2103 10.2084 38.7767 10.9925 40.1498C11.7766 41.5229 12.932 42.647 14.3262 43.393C12.1168 44.442 10.0991 45.8545 8.35726 47.5715C4.50011 51.4287 1.28583 60.4287 1.28583 71.3573Z" fill="#FFB685"/>
<path d="M36.8712 29.6647C36.6549 29.6668 36.4394 29.6915 36.2283 29.7387L35.3701 29.9283V18.0001C35.3723 15.1748 34.2802 12.4584 32.3229 10.4208C30.3657 8.38326 27.6954 7.18288 24.8722 7.07153C27.0109 7.18521 29.0243 8.11562 30.4969 9.67074C31.9695 11.2259 32.7888 13.287 32.7858 15.4287V33.2905L33.3901 34.7658C33.9416 36.0947 33.9767 37.5817 33.4885 38.9351C33.0002 40.2885 32.024 41.4107 30.7512 42.0815C29.9187 42.5251 29.3304 43.0715 28.3597 43.0715H13.7894C13.9629 43.184 14.1429 43.2901 14.3262 43.393C15.5335 44.0336 16.8808 44.3649 18.2476 44.3572H18.8294C19.1056 45.2868 19.6748 46.1023 20.4521 46.6822C21.2293 47.2621 22.1732 47.5754 23.1429 47.5754C24.1127 47.5754 25.0565 47.2621 25.8338 46.6822C26.6111 46.1023 27.1803 45.2868 27.4565 44.3572H28.0383C29.405 44.3649 30.7524 44.0336 31.9597 43.393C33.3554 42.6463 34.5119 41.5206 35.296 40.1457C36.0802 38.7707 36.4602 37.2022 36.3922 35.6208H36.5369C36.9422 35.667 37.3528 35.6298 37.7433 35.5115C38.1337 35.3932 38.4959 35.1963 38.8075 34.9329C39.1191 34.6696 39.3735 34.3452 39.5552 33.9799C39.7368 33.6146 39.8418 33.216 39.8638 32.8086C39.8857 32.4011 39.8241 31.9936 39.6828 31.6108C39.5415 31.2281 39.3233 30.8783 39.0418 30.583C38.7604 30.2876 38.4215 30.053 38.0459 29.8934C37.6704 29.7338 37.2663 29.6527 36.8583 29.6551L36.8712 29.6647Z" fill="#E2895D"/>
<path d="M13.5001 20.5715V24.4287C13.5001 25.1107 13.2292 25.7647 12.7469 26.247C12.2647 26.7292 11.6106 27.0001 10.9286 27.0001V20.5715H13.5001Z" fill="#D81A1A"/>
<path d="M35.3573 20.5715V27.0001C34.6753 27.0001 34.0212 26.7292 33.539 26.247C33.0567 25.7647 32.7858 25.1107 32.7858 24.4287V20.5715H35.3573Z" fill="#D81A1A"/>
<path d="M23.1431 64.9286C20.7034 60.8014 19.1027 52.4346 18.6431 48.645C18.8497 48.6419 19.0526 48.5889 19.2345 48.4907L21.4845 47.2886C21.5755 47.3797 21.6838 47.4517 21.803 47.5002C21.9223 47.5488 22.05 47.573 22.1788 47.5714H24.1074C24.363 47.5712 24.6081 47.4695 24.7888 47.2886L27.0388 48.4907C27.2207 48.5889 27.4235 48.6419 27.6302 48.645C27.1834 52.4346 25.5827 60.8014 23.1431 64.9286Z" fill="#FFB8F5"/>
<path d="M36.6431 71.3573H23.1431V64.9287C30.8574 59.143 32.7859 51.4287 32.7859 51.4287L30.5359 48.8573L32.7859 48.2144V43.8044C34.6772 44.7986 36.4104 46.0682 37.9288 47.5716C41.7859 51.4287 45.0002 60.4287 45.0002 71.3573H36.6431Z" fill="#85BB72"/>
<path d="M39.8573 18C40.1983 18 40.5253 18.1355 40.7664 18.3766C41.0075 18.6177 41.143 18.9447 41.143 19.2857C41.143 19.6267 41.0075 19.9537 40.7664 20.1949C40.5253 20.436 40.1983 20.5714 39.8573 20.5714H6.42872C6.08773 20.5714 5.7607 20.436 5.51958 20.1949C5.27846 19.9537 5.14301 19.6267 5.14301 19.2857C5.14301 18.9447 5.27846 18.6177 5.51958 18.3766C5.7607 18.1355 6.08773 18 6.42872 18H39.8573Z" fill="#85BB72"/>
<path d="M34.4123 0.64287C34.7735 0.643387 35.1306 0.72001 35.4603 0.867748C35.7899 1.01549 36.0847 1.23102 36.3255 1.50031C36.5663 1.7696 36.7476 2.0866 36.8577 2.43066C36.9678 2.77472 37.0042 3.13811 36.9644 3.49716L35.3573 18H10.9287L9.32158 3.49716C9.28166 3.13649 9.31852 2.77146 9.42975 2.42605C9.54097 2.08065 9.72404 1.7627 9.96693 1.49311C10.2098 1.22351 10.507 1.00837 10.839 0.861828C11.1709 0.715288 11.5301 0.640667 11.893 0.64287H34.4123Z" fill="#85BB72"/>
<path d="M32.7859 43.8043V48.2143L30.5359 48.8571L32.7859 51.4286C32.7859 51.4286 30.8574 59.1429 23.1431 64.9286C25.5827 60.8014 27.1834 52.4346 27.6431 48.645C27.9841 48.645 28.3111 48.5095 28.5522 48.2684C28.7933 48.0273 28.9288 47.7003 28.9288 47.3593V44.3154C29.9896 44.2064 31.0191 43.8919 31.9598 43.3896C32.2202 43.5118 32.4966 43.65 32.7859 43.8043Z" fill="#85BB72"/>
<path d="M27.643 48.645C27.4363 48.6418 27.2334 48.5889 27.0515 48.4907L24.8015 47.2886C24.9777 47.1058 25.0747 46.861 25.0715 46.6071V45.3214C25.0715 45.0657 24.9699 44.8204 24.7891 44.6396C24.6083 44.4587 24.363 44.3571 24.1072 44.3571H28.0383C28.3405 44.3571 28.6394 44.3411 28.9287 44.3121V47.3561C28.9291 47.5252 28.8961 47.6927 28.8317 47.8491C28.7673 48.0054 28.6727 48.1475 28.5532 48.2673C28.4338 48.387 28.2919 48.482 28.1357 48.5468C27.9795 48.6116 27.8121 48.645 27.643 48.645Z" fill="#D81A1A"/>
<path d="M25.0714 45.3215V46.6072C25.0714 46.8629 24.9698 47.1082 24.7889 47.289C24.6081 47.4699 24.3628 47.5715 24.1071 47.5715H22.1785C21.9228 47.5715 21.6775 47.4699 21.4967 47.289C21.3158 47.1082 21.2142 46.8629 21.2142 46.6072V45.3215C21.2142 45.0657 21.3158 44.8204 21.4967 44.6396C21.6775 44.4588 21.9228 44.3572 22.1785 44.3572H24.1071C24.3628 44.3572 24.6081 44.4588 24.7889 44.6396C24.9698 44.8204 25.0714 45.0657 25.0714 45.3215Z" fill="#D81A1A"/>
<path d="M9.64297 71.3573H1.28583C1.28583 60.4287 4.50011 51.4287 8.35726 47.5716C9.8756 46.0682 11.6088 44.7986 13.5001 43.8044V48.2144L15.7501 48.8573L13.5001 51.4287C13.5001 51.4287 15.4287 59.143 23.143 64.9287V71.3573H9.64297Z" fill="#0AC05E" fill-opacity="0.5"/>
<path d="M18.643 48.645C18.302 48.645 17.9749 48.5095 17.7338 48.2684C17.4927 48.0273 17.3572 47.7002 17.3572 47.3592V44.3153C17.6465 44.3442 17.9455 44.3603 18.2476 44.3603H22.1787C21.9229 44.3603 21.6777 44.4619 21.4968 44.6427C21.316 44.8236 21.2144 45.0688 21.2144 45.3246V46.6103C21.2146 46.866 21.3163 47.1111 21.4972 47.2917L19.2472 48.4939C19.0612 48.593 18.8537 48.6449 18.643 48.645V48.645Z" fill="#D81A1A"/>
<path d="M18.6429 48.6449C19.0897 52.4346 20.6904 60.8014 23.1429 64.9285C15.4286 59.1428 13.5001 51.4285 13.5001 51.4285L15.7501 48.8571L13.5001 48.2142V43.8042C13.7893 43.6499 14.0658 43.5117 14.3261 43.3864C15.2669 43.8886 16.2964 44.2031 17.3572 44.3121V47.356C17.3568 47.5251 17.3897 47.6926 17.4541 47.849C17.5186 48.0054 17.6132 48.1475 17.7326 48.2672C17.8521 48.3869 17.994 48.4819 18.1502 48.5467C18.3064 48.6116 18.4738 48.6449 18.6429 48.6449V48.6449Z" fill="#85BB72"/>
<path d="M23.1429 34.0715C25.4412 34.0715 26.2544 32.4965 26.2897 32.429L25.1422 31.8472C25.1229 31.8857 24.6215 32.7857 23.1429 32.7857C21.6644 32.7857 21.1629 31.8857 21.1437 31.8472L19.9962 32.429C20.0315 32.4965 20.8447 34.0715 23.1429 34.0715Z" fill="#110002"/>
<path d="M17.3572 28.2856H18.643V30.8571H17.3572V28.2856Z" fill="#110002"/>
<path d="M17.8459 24.8626C18.2107 24.929 18.5363 25.1326 18.7556 25.4316L19.8195 24.7148C19.6088 24.4085 19.3364 24.1496 19.0197 23.9548C18.7031 23.76 18.3493 23.6334 17.9809 23.5834C17.1806 23.503 16.3738 23.8501 15.6184 24.6184L16.5248 25.5248C17.0038 25.0491 17.4506 24.8241 17.8459 24.8626V24.8626Z" fill="#110002"/>
<path d="M27.6431 28.2856H28.9288V30.8571H27.6431V28.2856Z" fill="#110002"/>
<path d="M28.4401 24.8626C28.8386 24.8241 29.2822 25.0491 29.7611 25.5248L30.6676 24.6184C29.9026 23.8501 29.1054 23.503 28.3051 23.5834C27.9367 23.6334 27.5828 23.76 27.2662 23.9548C26.9496 24.1496 26.6772 24.4085 26.4665 24.7148L27.5304 25.4316C27.7497 25.1326 28.0752 24.929 28.4401 24.8626V24.8626Z" fill="#110002"/>
<path d="M22.5001 49.1785H23.7858V50.4642H22.5001V49.1785Z" fill="#110002"/>
<path d="M22.5001 53.0356H23.7858V54.3214H22.5001V53.0356Z" fill="#110002"/>
<path d="M45.6429 70.7143C45.5239 60.7918 42.6407 51.3675 38.3882 47.1182C36.874 45.6131 35.1479 44.3375 33.2646 43.3318C34.3933 42.5256 35.3213 41.4705 35.9768 40.2482C36.6323 39.0259 36.9977 37.6691 37.0446 36.2829C37.5483 36.2603 38.0417 36.1331 38.4936 35.9094C38.9454 35.6857 39.3457 35.3704 39.669 34.9836C39.9923 34.5967 40.2315 34.1468 40.3714 33.6625C40.5114 33.1781 40.5489 32.67 40.4818 32.1703C40.4146 31.6706 40.2441 31.1904 39.9812 30.7603C39.7183 30.3301 39.3687 29.9594 38.9547 29.6717C38.5407 29.384 38.0713 29.1856 37.5764 29.0892C37.0816 28.9928 36.5721 29.0005 36.0804 29.1118L36.0032 29.1279V21.2143H39.8604C40.3718 21.2143 40.8624 21.0111 41.2241 20.6494C41.5857 20.2877 41.7889 19.7972 41.7889 19.2857C41.7889 18.7742 41.5857 18.2837 41.2241 17.922C40.8624 17.5603 40.3718 17.3571 39.8604 17.3571H36.0739L37.6071 3.56786C37.6569 3.11864 37.6113 2.664 37.4734 2.23359C37.3355 1.80318 37.1084 1.4067 36.8069 1.07001C36.5054 0.733319 36.1363 0.463997 35.7236 0.279624C35.311 0.0952499 34.8641 -3.09122e-05 34.4121 7.52292e-09H11.8736C11.4216 -3.09122e-05 10.9747 0.0952499 10.5621 0.279624C10.1495 0.463997 9.78034 0.733319 9.47884 1.07001C9.17733 1.4067 8.95022 1.80318 8.81233 2.23359C8.67443 2.664 8.62886 3.11864 8.67857 3.56786L10.2118 17.3571H6.42857C5.91708 17.3571 5.42654 17.5603 5.06487 17.922C4.70319 18.2837 4.5 18.7742 4.5 19.2857C4.5 19.7972 4.70319 20.2877 5.06487 20.6494C5.42654 21.0111 5.91708 21.2143 6.42857 21.2143H10.2857V29.1279L10.2054 29.1118C9.94593 29.0526 9.68073 29.0224 9.41464 29.0218C8.46321 29.0178 7.5482 29.3874 6.86635 30.0509C6.18449 30.7145 5.79024 31.6191 5.76834 32.5703C5.74645 33.5215 6.09866 34.4433 6.74926 35.1376C7.39986 35.8318 8.29689 36.243 9.2475 36.2829C9.29593 37.6688 9.66194 39.025 10.3173 40.2472C10.9727 41.4693 11.8999 42.5246 13.0275 43.3318C11.1449 44.3386 9.41895 45.6141 7.90393 47.1182C3.65143 51.3675 0.768214 60.7918 0.642857 70.7143H0V72H46.2857V70.7143H45.6429ZM44.3571 70.7143H37.2857C37.1764 61.4539 34.7432 57.0825 34.6371 56.8929L33.5186 57.5357C33.5443 57.5775 35.8907 61.8364 36 70.7143H23.7857V65.25C31.3779 59.4225 33.3289 51.9107 33.4093 51.5925C33.4351 51.4916 33.436 51.3859 33.4119 51.2846C33.3879 51.1832 33.3395 51.0892 33.2711 51.0107L31.6864 49.2043L32.9721 48.8379C33.1055 48.7974 33.2222 48.7148 33.3045 48.6023C33.3868 48.4898 33.4304 48.3537 33.4286 48.2143V44.9068C34.9017 45.7741 36.261 46.8215 37.4754 48.0246C40.8214 51.3868 44.2221 59.6732 44.3571 70.7143V70.7143ZM16.3736 48.6739C16.3426 48.5704 16.2859 48.4764 16.209 48.4006C16.132 48.3247 16.0372 48.2695 15.9332 48.24L14.1429 47.7289V44.1932L14.3229 44.1C15.0793 44.4695 15.8845 44.7293 16.7143 44.8714V47.3561C16.7141 47.6106 16.7643 47.8626 16.8619 48.0976C16.9595 48.3326 17.1027 48.5459 17.2832 48.7254C17.5059 48.9452 17.7782 49.1084 18.0771 49.2011C18.4436 51.9975 19.5171 58.0532 21.2914 62.5404C18.0594 59.5344 15.6287 55.7691 14.22 51.5861L16.2386 49.2814C16.3096 49.1993 16.3586 49.1005 16.3811 48.9942C16.4036 48.888 16.3988 48.7778 16.3671 48.6739H16.3736ZM31.9693 44.1032L32.1493 44.1964V47.7321L30.3654 48.2432C30.2614 48.2727 30.1666 48.3279 30.0896 48.4038C30.0126 48.4796 29.956 48.5736 29.925 48.6771C29.8938 48.7813 29.8895 48.8916 29.9126 48.9979C29.9356 49.1041 29.9852 49.2028 30.0568 49.2846L32.0786 51.5925C30.6706 55.775 28.2398 59.5393 25.0071 62.5436C26.7846 58.0596 27.8582 52.0039 28.2214 49.2043C28.5203 49.1116 28.7926 48.9484 29.0154 48.7286C29.1958 48.5492 29.339 48.3358 29.4367 48.1008C29.5343 47.8658 29.5845 47.6138 29.5843 47.3593V44.8714C30.4095 44.7291 31.2103 44.4705 31.9629 44.1032H31.9693ZM21.465 48.0375C21.6858 48.1514 21.9302 48.212 22.1786 48.2143H24.1071C24.3577 48.213 24.6045 48.1524 24.8271 48.0375L26.7364 49.0596C26.7975 49.0918 26.8586 49.1175 26.9196 49.1432C26.4054 53.0486 25.0393 59.6314 23.1429 63.5625C21.2432 59.6282 19.8771 53.0293 19.3661 49.1432C19.4261 49.1175 19.4871 49.0886 19.5493 49.0564L21.465 48.0375ZM28.2857 47.3561C28.2862 47.4407 28.27 47.5245 28.238 47.6029C28.206 47.6812 28.1589 47.7524 28.0993 47.8125C28.0391 47.873 27.9675 47.921 27.8885 47.9536C27.8096 47.9861 27.725 48.0026 27.6396 48.0021C27.5356 47.9987 27.4335 47.9723 27.3407 47.925L25.6532 47.0218C25.6913 46.8868 25.7118 46.7474 25.7143 46.6071V45.3214C25.7135 45.2135 25.7027 45.1059 25.6821 45H28.0382H28.2857V47.3561ZM24.4286 45.3214V46.6071C24.4286 46.6924 24.3947 46.7741 24.3344 46.8344C24.2741 46.8947 24.1924 46.9286 24.1071 46.9286H22.1786C22.0933 46.9286 22.0116 46.8947 21.9513 46.8344C21.891 46.7741 21.8571 46.6924 21.8571 46.6071V45.3214C21.8571 45.2362 21.891 45.1544 21.9513 45.0941C22.0116 45.0339 22.0933 45 22.1786 45H24.1071C24.1924 45 24.2741 45.0339 24.3344 45.0941C24.3947 45.1544 24.4286 45.2362 24.4286 45.3214ZM20.6325 47.0218L18.945 47.9218C18.854 47.9711 18.7527 47.9986 18.6493 48.0021C18.4771 47.9971 18.3126 47.9297 18.1864 47.8125C18.1268 47.7524 18.0797 47.6812 18.0477 47.6029C18.0157 47.5245 17.9995 47.4407 18 47.3561V45H18.2475H20.6036C20.583 45.1059 20.5723 45.2135 20.5714 45.3214V46.6071C20.5739 46.7474 20.5945 46.8868 20.6325 47.0218ZM36.3504 30.3654C36.5215 30.3281 36.696 30.3087 36.8711 30.3075C37.1792 30.3001 37.4858 30.3535 37.7733 30.4646C38.0608 30.5757 38.3236 30.7423 38.5467 30.955C38.7698 31.1676 38.9489 31.4222 39.0736 31.704C39.1984 31.9859 39.2664 32.2895 39.2738 32.5977C39.2811 32.9058 39.2278 33.2124 39.1167 33.4999C39.0056 33.7874 38.8389 34.0502 38.6263 34.2733C38.4136 34.4964 38.1591 34.6755 37.8772 34.8002C37.5954 34.925 37.2917 34.993 36.9836 35.0004C36.8895 34.1698 36.6807 33.3564 36.3632 32.5832L36 31.6961V30.4457L36.3504 30.3654ZM34.7143 26.2446C34.3386 26.1118 34.0133 25.8659 33.7831 25.5407C33.5529 25.2155 33.429 24.827 33.4286 24.4286V21.2143H34.7143V26.2446ZM9.96429 3.42321C9.93215 3.15505 9.95738 2.88313 10.0383 2.62545C10.1192 2.36778 10.2539 2.13024 10.4336 1.92857C10.6148 1.72601 10.8367 1.56402 11.0849 1.45323C11.333 1.34245 11.6018 1.28536 11.8736 1.28571H34.4121C34.6839 1.28536 34.9527 1.34245 35.2009 1.45323C35.449 1.56402 35.671 1.72601 35.8521 1.92857C36.0322 2.13061 36.1672 2.36868 36.2481 2.62695C36.329 2.88522 36.354 3.15775 36.3214 3.42643L34.7818 17.3571H11.5039L9.96429 3.42321ZM5.78571 19.2857C5.78571 19.1152 5.85344 18.9517 5.974 18.8311C6.09456 18.7106 6.25808 18.6429 6.42857 18.6429H39.8571C40.0276 18.6429 40.1912 18.7106 40.3117 18.8311C40.4323 18.9517 40.5 19.1152 40.5 19.2857C40.5 19.4562 40.4323 19.6197 40.3117 19.7403C40.1912 19.8608 40.0276 19.9286 39.8571 19.9286H6.42857C6.25808 19.9286 6.09456 19.8608 5.974 19.7403C5.85344 19.6197 5.78571 19.4562 5.78571 19.2857ZM12.8571 21.2143V24.4286C12.858 24.8281 12.7348 25.2181 12.5045 25.5445C12.2741 25.871 11.9481 26.1179 11.5714 26.2511V21.2143H12.8571ZM9.96429 32.4964C9.94678 32.524 9.93172 32.553 9.91929 32.5832C9.60177 33.3564 9.393 34.1698 9.29893 35.0004C8.99079 34.993 8.68713 34.925 8.40527 34.8002C8.12342 34.6755 7.86889 34.4964 7.65623 34.2733C7.22674 33.8227 6.99383 33.22 7.00875 32.5977C7.02367 31.9754 7.28519 31.3845 7.73578 30.955C8.18637 30.5255 8.78912 30.2926 9.41143 30.3075C9.58548 30.3086 9.75894 30.328 9.92893 30.3654L10.2825 30.4457V31.9661L9.96429 32.4964ZM10.5332 35.6432C10.5736 34.7721 10.7628 33.9144 11.0925 33.1071L11.4782 32.4643C11.5371 32.3673 11.5693 32.2564 11.5714 32.1429V27.5786C12.2974 27.4304 12.95 27.0359 13.4186 26.4619C13.8871 25.8878 14.143 25.1696 14.1429 24.4286V21.2143H32.1429V24.4286C32.1427 25.1696 32.3986 25.8878 32.8672 26.4619C33.3357 27.0359 33.9883 27.4304 34.7143 27.5786V31.8214C34.7143 31.9052 34.7307 31.9882 34.7625 32.0657L35.1739 33.0718C35.5141 33.8889 35.7088 34.7591 35.7493 35.6432C35.8131 37.1032 35.4628 38.5515 34.7388 39.8209C34.0148 41.0903 32.9466 42.1291 31.6575 42.8175C30.7903 43.2794 29.8417 43.5687 28.8643 43.6693C28.5898 43.6975 28.3141 43.7114 28.0382 43.7111H18.2475C17.9727 43.7115 17.698 43.6976 17.4246 43.6693C16.4456 43.5696 15.4956 43.2792 14.6282 42.8143C13.3391 42.1267 12.2709 41.0885 11.5468 39.8196C10.8228 38.5507 10.4725 37.1028 10.5364 35.6432H10.5332ZM8.80714 48.0246C10.0218 46.8205 11.3824 45.7731 12.8571 44.9068V48.2143C12.8573 48.3538 12.9029 48.4895 12.987 48.6008C13.0711 48.7121 13.1891 48.7931 13.3232 48.8314L14.6089 49.1979L13.0243 51.0043C12.9558 51.0828 12.9075 51.1768 12.8834 51.2781C12.8593 51.3795 12.8602 51.4852 12.8861 51.5861C12.9664 51.9075 14.9175 59.4161 22.5096 65.2436V70.7079H10.2857C10.395 61.8268 12.7414 57.5679 12.7671 57.5293L12.2143 57.2143L11.655 56.8929C11.5489 57.0793 9.11571 61.4507 9.00643 70.7143H1.92857C2.06357 59.6732 5.46429 51.3868 8.81036 48.0246H8.80714Z" fill="#110002"/>
</svg>
