<svg width="101" height="105" viewBox="0 0 101 105" fill="none" xmlns="http://www.w3.org/2000/svg">
<mask id="path-1-inside-1_6_132" fill="white">
<path d="M0.629721 30.9778C5.55738 20.0543 14.0843 11.1525 24.7858 5.75968C35.4874 0.366874 47.7154 -1.19032 59.427 1.34826C71.1386 3.88684 81.6244 10.3674 89.1325 19.7073C96.6406 29.0472 100.716 40.6807 100.679 52.6642C100.641 64.6477 96.4924 76.2554 88.9258 85.548C81.3591 94.8405 70.8329 101.255 59.1056 103.72C47.3783 106.185 35.1603 104.551 24.4928 99.0913C13.8253 93.6314 5.35446 84.6762 0.495503 73.7219L1.22914 73.3965C6.01359 84.1828 14.3545 93.0007 24.8584 98.3768C35.3623 103.753 47.393 105.362 58.9405 102.935C70.488 100.508 80.8528 94.1913 88.3034 85.0412C95.754 75.8912 99.8391 64.4615 99.8762 52.6617C99.9132 40.862 95.9 29.4069 88.507 20.2102C81.114 11.0135 70.789 4.63227 59.257 2.13262C47.725 -0.367039 35.6845 1.16627 25.147 6.47638C14.6095 11.7865 6.21339 20.5518 1.3613 31.3078L0.629721 30.9778Z"/>
</mask>
<path d="M0.629721 30.9778C5.55738 20.0543 14.0843 11.1525 24.7858 5.75968C35.4874 0.366874 47.7154 -1.19032 59.427 1.34826C71.1386 3.88684 81.6244 10.3674 89.1325 19.7073C96.6406 29.0472 100.716 40.6807 100.679 52.6642C100.641 64.6477 96.4924 76.2554 88.9258 85.548C81.3591 94.8405 70.8329 101.255 59.1056 103.72C47.3783 106.185 35.1603 104.551 24.4928 99.0913C13.8253 93.6314 5.35446 84.6762 0.495503 73.7219L1.22914 73.3965C6.01359 84.1828 14.3545 93.0007 24.8584 98.3768C35.3623 103.753 47.393 105.362 58.9405 102.935C70.488 100.508 80.8528 94.1913 88.3034 85.0412C95.754 75.8912 99.8391 64.4615 99.8762 52.6617C99.9132 40.862 95.9 29.4069 88.507 20.2102C81.114 11.0135 70.789 4.63227 59.257 2.13262C47.725 -0.367039 35.6845 1.16627 25.147 6.47638C14.6095 11.7865 6.21339 20.5518 1.3613 31.3078L0.629721 30.9778Z" stroke="#0AC05E" stroke-width="2.56233" stroke-dasharray="5.12 5.12" mask="url(#path-1-inside-1_6_132)"/>
</svg>
