<svg width="43" height="31" viewBox="0 0 43 31" fill="none" xmlns="http://www.w3.org/2000/svg">
<path d="M1.06049 28.4055C2.82288 26.562 4.20761 24.8442 5.2147 23.252C6.22178 21.6599 6.72532 20.361 6.72532 19.3555C6.72532 18.7689 6.51551 18.2242 6.09589 17.7214C5.76019 17.2187 5.2147 16.674 4.45939 16.0874C3.28446 15.1656 2.3613 14.202 1.68991 13.1964C1.01852 12.1908 0.682831 10.8501 0.682831 9.17415C0.682831 6.57645 1.4801 4.48153 3.07464 2.88939C4.66919 1.21346 6.68335 0.375488 9.11713 0.375488C11.7188 0.375488 13.8168 1.21346 15.4114 2.88939C17.0899 4.48153 17.9291 6.57645 17.9291 9.17415C17.9291 12.4422 16.5444 16.0455 13.7749 19.9839C11.0893 23.8386 7.48063 27.2743 2.94876 30.291L1.06049 28.4055ZM25.4822 28.4055C27.2446 26.562 28.6293 24.8442 29.6364 23.252C30.6435 21.6599 31.147 20.361 31.147 19.3555C31.147 18.7689 30.9372 18.2242 30.5176 17.7214C30.1819 17.2187 29.6364 16.674 28.8811 16.0874C27.7062 15.1656 26.783 14.202 26.1116 13.1964C25.4402 12.1908 25.1045 10.8501 25.1045 9.17415C25.1045 6.57645 25.9018 4.48153 27.4964 2.88939C29.0909 1.21346 31.1051 0.375488 33.5388 0.375488C36.1405 0.375488 38.2386 1.21346 39.8331 2.88939C41.5116 4.48153 42.3508 6.57645 42.3508 9.17415C42.3508 12.4422 40.9661 16.0455 38.1966 19.9839C35.5111 23.8386 31.9023 27.2743 27.3705 30.291L25.4822 28.4055Z" fill="white"/>
</svg>
